<mxfile host="app.diagrams.net" modified="2022-04-14T10:40:58.916Z" agent="5.0 (X11)" etag="znlP6w50GVpNnqtUr3e1" version="17.4.4" type="github">
  <diagram id="R2lEEEUBdFMjLlhIrx00" name="Page-1">
    <mxGraphModel dx="1422" dy="755" grid="1" gridSize="10" guides="1" tooltips="1" connect="1" arrows="1" fold="1" page="1" pageScale="1" pageWidth="850" pageHeight="1100" math="0" shadow="0" extFonts="Permanent Marker^https://fonts.googleapis.com/css?family=Permanent+Marker">
      <root>
        <mxCell id="0" />
        <mxCell id="1" parent="0" />
        <mxCell id="yDrpG6ZXYBAdKT8HltvP-22" value="" style="shape=partialRectangle;collapsible=0;dropTarget=0;pointerEvents=0;fillColor=none;points=[[0,0.5],[1,0.5]];portConstraint=eastwest;top=0;left=0;right=0;bottom=0;container=0;" vertex="1" parent="1">
          <mxGeometry x="100" y="230" width="170" height="30" as="geometry" />
        </mxCell>
        <mxCell id="yDrpG6ZXYBAdKT8HltvP-65" value="" style="group" vertex="1" connectable="0" parent="1">
          <mxGeometry x="80" y="80" width="180" height="180" as="geometry" />
        </mxCell>
        <mxCell id="C-vyLk0tnHw3VtMMgP7b-23" value="Utente" style="shape=table;startSize=30;container=1;collapsible=1;childLayout=tableLayout;fixedRows=1;rowLines=0;fontStyle=1;align=center;resizeLast=1;" parent="yDrpG6ZXYBAdKT8HltvP-65" vertex="1">
          <mxGeometry width="180" height="180" as="geometry" />
        </mxCell>
        <mxCell id="C-vyLk0tnHw3VtMMgP7b-24" value="" style="shape=partialRectangle;collapsible=0;dropTarget=0;pointerEvents=0;fillColor=none;points=[[0,0.5],[1,0.5]];portConstraint=eastwest;top=0;left=0;right=0;bottom=1;" parent="C-vyLk0tnHw3VtMMgP7b-23" vertex="1">
          <mxGeometry y="30" width="180" height="30" as="geometry" />
        </mxCell>
        <mxCell id="C-vyLk0tnHw3VtMMgP7b-25" value="PK" style="shape=partialRectangle;overflow=hidden;connectable=0;fillColor=none;top=0;left=0;bottom=0;right=0;fontStyle=1;" parent="C-vyLk0tnHw3VtMMgP7b-24" vertex="1">
          <mxGeometry width="30" height="30" as="geometry">
            <mxRectangle width="30" height="30" as="alternateBounds" />
          </mxGeometry>
        </mxCell>
        <mxCell id="C-vyLk0tnHw3VtMMgP7b-26" value="id_utente" style="shape=partialRectangle;overflow=hidden;connectable=0;fillColor=none;top=0;left=0;bottom=0;right=0;align=left;spacingLeft=6;fontStyle=5;" parent="C-vyLk0tnHw3VtMMgP7b-24" vertex="1">
          <mxGeometry x="30" width="150" height="30" as="geometry">
            <mxRectangle width="150" height="30" as="alternateBounds" />
          </mxGeometry>
        </mxCell>
        <mxCell id="C-vyLk0tnHw3VtMMgP7b-27" value="" style="shape=partialRectangle;collapsible=0;dropTarget=0;pointerEvents=0;fillColor=none;points=[[0,0.5],[1,0.5]];portConstraint=eastwest;top=0;left=0;right=0;bottom=0;" parent="C-vyLk0tnHw3VtMMgP7b-23" vertex="1">
          <mxGeometry y="60" width="180" height="30" as="geometry" />
        </mxCell>
        <mxCell id="C-vyLk0tnHw3VtMMgP7b-28" value="" style="shape=partialRectangle;overflow=hidden;connectable=0;fillColor=none;top=0;left=0;bottom=0;right=1;" parent="C-vyLk0tnHw3VtMMgP7b-27" vertex="1">
          <mxGeometry width="30" height="30" as="geometry">
            <mxRectangle width="30" height="30" as="alternateBounds" />
          </mxGeometry>
        </mxCell>
        <mxCell id="C-vyLk0tnHw3VtMMgP7b-29" value="username" style="shape=partialRectangle;overflow=hidden;connectable=0;fillColor=none;top=0;left=0;bottom=0;right=0;align=left;spacingLeft=6;" parent="C-vyLk0tnHw3VtMMgP7b-27" vertex="1">
          <mxGeometry x="30" width="150" height="30" as="geometry">
            <mxRectangle width="150" height="30" as="alternateBounds" />
          </mxGeometry>
        </mxCell>
        <mxCell id="yDrpG6ZXYBAdKT8HltvP-60" value="" style="group" vertex="1" connectable="0" parent="yDrpG6ZXYBAdKT8HltvP-65">
          <mxGeometry y="150" width="180" height="30" as="geometry" />
        </mxCell>
        <mxCell id="yDrpG6ZXYBAdKT8HltvP-23" value="" style="shape=partialRectangle;overflow=hidden;connectable=0;fillColor=none;top=0;left=0;bottom=0;right=1;" vertex="1" parent="yDrpG6ZXYBAdKT8HltvP-60">
          <mxGeometry width="30" height="30" as="geometry">
            <mxRectangle width="30" height="30" as="alternateBounds" />
          </mxGeometry>
        </mxCell>
        <mxCell id="yDrpG6ZXYBAdKT8HltvP-24" value="email" style="shape=partialRectangle;overflow=hidden;connectable=0;fillColor=none;top=0;left=0;bottom=0;right=0;align=left;spacingLeft=6;" vertex="1" parent="yDrpG6ZXYBAdKT8HltvP-60">
          <mxGeometry x="30" width="150" height="30" as="geometry">
            <mxRectangle width="220" height="30" as="alternateBounds" />
          </mxGeometry>
        </mxCell>
        <mxCell id="yDrpG6ZXYBAdKT8HltvP-62" value="" style="group" vertex="1" connectable="0" parent="yDrpG6ZXYBAdKT8HltvP-65">
          <mxGeometry y="120" width="180" height="30" as="geometry" />
        </mxCell>
        <mxCell id="yDrpG6ZXYBAdKT8HltvP-19" value="" style="shape=partialRectangle;collapsible=0;dropTarget=0;pointerEvents=0;fillColor=none;points=[[0,0.5],[1,0.5]];portConstraint=eastwest;top=0;left=0;right=0;bottom=0;container=0;" vertex="1" parent="yDrpG6ZXYBAdKT8HltvP-62">
          <mxGeometry width="180" height="30" as="geometry" />
        </mxCell>
        <mxCell id="yDrpG6ZXYBAdKT8HltvP-20" value="" style="shape=partialRectangle;overflow=hidden;connectable=0;fillColor=none;top=0;left=0;bottom=0;right=1;" vertex="1" parent="yDrpG6ZXYBAdKT8HltvP-62">
          <mxGeometry width="30" height="30" as="geometry">
            <mxRectangle width="30" height="30" as="alternateBounds" />
          </mxGeometry>
        </mxCell>
        <mxCell id="yDrpG6ZXYBAdKT8HltvP-21" value="registration_date" style="shape=partialRectangle;overflow=hidden;connectable=0;fillColor=none;top=0;left=0;bottom=0;right=0;align=left;spacingLeft=6;" vertex="1" parent="yDrpG6ZXYBAdKT8HltvP-62">
          <mxGeometry x="30" width="150" height="30" as="geometry">
            <mxRectangle width="220" height="30" as="alternateBounds" />
          </mxGeometry>
        </mxCell>
        <mxCell id="yDrpG6ZXYBAdKT8HltvP-63" value="" style="group" vertex="1" connectable="0" parent="yDrpG6ZXYBAdKT8HltvP-65">
          <mxGeometry y="90" width="180" height="30" as="geometry" />
        </mxCell>
        <mxCell id="yDrpG6ZXYBAdKT8HltvP-16" value="" style="shape=partialRectangle;collapsible=0;dropTarget=0;pointerEvents=0;fillColor=none;points=[[0,0.5],[1,0.5]];portConstraint=eastwest;top=0;left=0;right=0;bottom=0;container=0;" vertex="1" parent="yDrpG6ZXYBAdKT8HltvP-63">
          <mxGeometry width="180" height="30" as="geometry" />
        </mxCell>
        <mxCell id="yDrpG6ZXYBAdKT8HltvP-17" value="" style="shape=partialRectangle;overflow=hidden;connectable=0;fillColor=none;top=0;left=0;bottom=0;right=1;" vertex="1" parent="yDrpG6ZXYBAdKT8HltvP-63">
          <mxGeometry width="30" height="30" as="geometry">
            <mxRectangle width="30" height="30" as="alternateBounds" />
          </mxGeometry>
        </mxCell>
        <mxCell id="yDrpG6ZXYBAdKT8HltvP-18" value="password" style="shape=partialRectangle;overflow=hidden;connectable=0;fillColor=none;top=0;left=0;bottom=0;right=0;align=left;spacingLeft=6;" vertex="1" parent="yDrpG6ZXYBAdKT8HltvP-63">
          <mxGeometry x="30" width="150" height="30" as="geometry">
            <mxRectangle width="220" height="30" as="alternateBounds" />
          </mxGeometry>
        </mxCell>
        <mxCell id="yDrpG6ZXYBAdKT8HltvP-85" value="" style="group" vertex="1" connectable="0" parent="1">
          <mxGeometry x="460" y="80" width="180" height="150" as="geometry" />
        </mxCell>
        <mxCell id="yDrpG6ZXYBAdKT8HltvP-67" value="Team" style="shape=table;startSize=30;container=1;collapsible=1;childLayout=tableLayout;fixedRows=1;rowLines=0;fontStyle=1;align=center;resizeLast=1;" vertex="1" parent="yDrpG6ZXYBAdKT8HltvP-85">
          <mxGeometry width="180" height="150" as="geometry" />
        </mxCell>
        <mxCell id="yDrpG6ZXYBAdKT8HltvP-68" value="" style="shape=partialRectangle;collapsible=0;dropTarget=0;pointerEvents=0;fillColor=none;points=[[0,0.5],[1,0.5]];portConstraint=eastwest;top=0;left=0;right=0;bottom=1;" vertex="1" parent="yDrpG6ZXYBAdKT8HltvP-67">
          <mxGeometry y="30" width="180" height="30" as="geometry" />
        </mxCell>
        <mxCell id="yDrpG6ZXYBAdKT8HltvP-69" value="PK" style="shape=partialRectangle;overflow=hidden;connectable=0;fillColor=none;top=0;left=0;bottom=0;right=0;fontStyle=1;" vertex="1" parent="yDrpG6ZXYBAdKT8HltvP-68">
          <mxGeometry width="30" height="30" as="geometry">
            <mxRectangle width="30" height="30" as="alternateBounds" />
          </mxGeometry>
        </mxCell>
        <mxCell id="yDrpG6ZXYBAdKT8HltvP-70" value="id_team" style="shape=partialRectangle;overflow=hidden;connectable=0;fillColor=none;top=0;left=0;bottom=0;right=0;align=left;spacingLeft=6;fontStyle=5;" vertex="1" parent="yDrpG6ZXYBAdKT8HltvP-68">
          <mxGeometry x="30" width="150" height="30" as="geometry">
            <mxRectangle width="150" height="30" as="alternateBounds" />
          </mxGeometry>
        </mxCell>
        <mxCell id="yDrpG6ZXYBAdKT8HltvP-71" value="" style="shape=partialRectangle;collapsible=0;dropTarget=0;pointerEvents=0;fillColor=none;points=[[0,0.5],[1,0.5]];portConstraint=eastwest;top=0;left=0;right=0;bottom=0;" vertex="1" parent="yDrpG6ZXYBAdKT8HltvP-67">
          <mxGeometry y="60" width="180" height="30" as="geometry" />
        </mxCell>
        <mxCell id="yDrpG6ZXYBAdKT8HltvP-72" value="" style="shape=partialRectangle;overflow=hidden;connectable=0;fillColor=none;top=0;left=0;bottom=0;right=1;" vertex="1" parent="yDrpG6ZXYBAdKT8HltvP-71">
          <mxGeometry width="30" height="30" as="geometry">
            <mxRectangle width="30" height="30" as="alternateBounds" />
          </mxGeometry>
        </mxCell>
        <mxCell id="yDrpG6ZXYBAdKT8HltvP-73" value="name" style="shape=partialRectangle;overflow=hidden;connectable=0;fillColor=none;top=0;left=0;bottom=0;right=0;align=left;spacingLeft=6;" vertex="1" parent="yDrpG6ZXYBAdKT8HltvP-71">
          <mxGeometry x="30" width="150" height="30" as="geometry">
            <mxRectangle width="150" height="30" as="alternateBounds" />
          </mxGeometry>
        </mxCell>
        <mxCell id="yDrpG6ZXYBAdKT8HltvP-77" value="" style="group" vertex="1" connectable="0" parent="yDrpG6ZXYBAdKT8HltvP-85">
          <mxGeometry y="120" width="180" height="30" as="geometry" />
        </mxCell>
        <mxCell id="yDrpG6ZXYBAdKT8HltvP-78" value="" style="shape=partialRectangle;collapsible=0;dropTarget=0;pointerEvents=0;fillColor=none;points=[[0,0.5],[1,0.5]];portConstraint=eastwest;top=0;left=0;right=0;bottom=0;container=0;" vertex="1" parent="yDrpG6ZXYBAdKT8HltvP-77">
          <mxGeometry width="180" height="30" as="geometry" />
        </mxCell>
        <mxCell id="yDrpG6ZXYBAdKT8HltvP-79" value="" style="shape=partialRectangle;overflow=hidden;connectable=0;fillColor=none;top=0;left=0;bottom=0;right=1;" vertex="1" parent="yDrpG6ZXYBAdKT8HltvP-77">
          <mxGeometry width="30" height="30" as="geometry">
            <mxRectangle width="30" height="30" as="alternateBounds" />
          </mxGeometry>
        </mxCell>
        <mxCell id="yDrpG6ZXYBAdKT8HltvP-80" value="creation_date" style="shape=partialRectangle;overflow=hidden;connectable=0;fillColor=none;top=0;left=0;bottom=0;right=0;align=left;spacingLeft=6;" vertex="1" parent="yDrpG6ZXYBAdKT8HltvP-77">
          <mxGeometry x="30" width="150" height="30" as="geometry">
            <mxRectangle width="220" height="30" as="alternateBounds" />
          </mxGeometry>
        </mxCell>
        <mxCell id="yDrpG6ZXYBAdKT8HltvP-81" value="" style="group" vertex="1" connectable="0" parent="yDrpG6ZXYBAdKT8HltvP-85">
          <mxGeometry y="90" width="180" height="30" as="geometry" />
        </mxCell>
        <mxCell id="yDrpG6ZXYBAdKT8HltvP-82" value="" style="shape=partialRectangle;collapsible=0;dropTarget=0;pointerEvents=0;fillColor=none;points=[[0,0.5],[1,0.5]];portConstraint=eastwest;top=0;left=0;right=0;bottom=0;container=0;" vertex="1" parent="yDrpG6ZXYBAdKT8HltvP-81">
          <mxGeometry width="180" height="30" as="geometry" />
        </mxCell>
        <mxCell id="yDrpG6ZXYBAdKT8HltvP-83" value="" style="shape=partialRectangle;overflow=hidden;connectable=0;fillColor=none;top=0;left=0;bottom=0;right=1;" vertex="1" parent="yDrpG6ZXYBAdKT8HltvP-81">
          <mxGeometry width="30" height="30" as="geometry">
            <mxRectangle width="30" height="30" as="alternateBounds" />
          </mxGeometry>
        </mxCell>
        <mxCell id="yDrpG6ZXYBAdKT8HltvP-84" value="token" style="shape=partialRectangle;overflow=hidden;connectable=0;fillColor=none;top=0;left=0;bottom=0;right=0;align=left;spacingLeft=6;" vertex="1" parent="yDrpG6ZXYBAdKT8HltvP-81">
          <mxGeometry x="30" width="150" height="30" as="geometry">
            <mxRectangle width="220" height="30" as="alternateBounds" />
          </mxGeometry>
        </mxCell>
        <mxCell id="yDrpG6ZXYBAdKT8HltvP-87" value="Challenges" style="shape=table;startSize=30;container=1;collapsible=1;childLayout=tableLayout;fixedRows=1;rowLines=0;fontStyle=1;align=center;resizeLast=1;" vertex="1" parent="1">
          <mxGeometry x="80" y="460" width="180" height="90" as="geometry" />
        </mxCell>
        <mxCell id="yDrpG6ZXYBAdKT8HltvP-88" value="" style="shape=partialRectangle;collapsible=0;dropTarget=0;pointerEvents=0;fillColor=none;points=[[0,0.5],[1,0.5]];portConstraint=eastwest;top=0;left=0;right=0;bottom=1;" vertex="1" parent="yDrpG6ZXYBAdKT8HltvP-87">
          <mxGeometry y="30" width="180" height="30" as="geometry" />
        </mxCell>
        <mxCell id="yDrpG6ZXYBAdKT8HltvP-89" value="PK" style="shape=partialRectangle;overflow=hidden;connectable=0;fillColor=none;top=0;left=0;bottom=0;right=0;fontStyle=1;" vertex="1" parent="yDrpG6ZXYBAdKT8HltvP-88">
          <mxGeometry width="30" height="30" as="geometry">
            <mxRectangle width="30" height="30" as="alternateBounds" />
          </mxGeometry>
        </mxCell>
        <mxCell id="yDrpG6ZXYBAdKT8HltvP-90" value="id_challenge" style="shape=partialRectangle;overflow=hidden;connectable=0;fillColor=none;top=0;left=0;bottom=0;right=0;align=left;spacingLeft=6;fontStyle=5;" vertex="1" parent="yDrpG6ZXYBAdKT8HltvP-88">
          <mxGeometry x="30" width="150" height="30" as="geometry">
            <mxRectangle width="150" height="30" as="alternateBounds" />
          </mxGeometry>
        </mxCell>
        <mxCell id="yDrpG6ZXYBAdKT8HltvP-91" value="" style="shape=partialRectangle;collapsible=0;dropTarget=0;pointerEvents=0;fillColor=none;points=[[0,0.5],[1,0.5]];portConstraint=eastwest;top=0;left=0;right=0;bottom=0;" vertex="1" parent="yDrpG6ZXYBAdKT8HltvP-87">
          <mxGeometry y="60" width="180" height="30" as="geometry" />
        </mxCell>
        <mxCell id="yDrpG6ZXYBAdKT8HltvP-92" value="" style="shape=partialRectangle;overflow=hidden;connectable=0;fillColor=none;top=0;left=0;bottom=0;right=1;" vertex="1" parent="yDrpG6ZXYBAdKT8HltvP-91">
          <mxGeometry width="30" height="30" as="geometry">
            <mxRectangle width="30" height="30" as="alternateBounds" />
          </mxGeometry>
        </mxCell>
        <mxCell id="yDrpG6ZXYBAdKT8HltvP-93" value="flag" style="shape=partialRectangle;overflow=hidden;connectable=0;fillColor=none;top=0;left=0;bottom=0;right=0;align=left;spacingLeft=6;" vertex="1" parent="yDrpG6ZXYBAdKT8HltvP-91">
          <mxGeometry x="30" width="150" height="30" as="geometry">
            <mxRectangle width="150" height="30" as="alternateBounds" />
          </mxGeometry>
        </mxCell>
        <mxCell id="yDrpG6ZXYBAdKT8HltvP-115" value="" style="endArrow=none;html=1;rounded=0;startArrow=ERmany;startFill=0;" edge="1" parent="1">
          <mxGeometry relative="1" as="geometry">
            <mxPoint x="260" y="169.5" as="sourcePoint" />
            <mxPoint x="460" y="170" as="targetPoint" />
          </mxGeometry>
        </mxCell>
        <mxCell id="yDrpG6ZXYBAdKT8HltvP-116" value="&lt;div&gt;N&lt;/div&gt;" style="resizable=0;html=1;align=left;verticalAlign=bottom;" connectable="0" vertex="1" parent="yDrpG6ZXYBAdKT8HltvP-115">
          <mxGeometry x="-1" relative="1" as="geometry">
            <mxPoint x="10" y="-9" as="offset" />
          </mxGeometry>
        </mxCell>
        <mxCell id="yDrpG6ZXYBAdKT8HltvP-117" value="1" style="resizable=0;html=1;align=right;verticalAlign=bottom;" connectable="0" vertex="1" parent="yDrpG6ZXYBAdKT8HltvP-115">
          <mxGeometry x="1" relative="1" as="geometry">
            <mxPoint x="-10" y="-10" as="offset" />
          </mxGeometry>
        </mxCell>
        <mxCell id="yDrpG6ZXYBAdKT8HltvP-118" value="" style="endArrow=ERmany;html=1;rounded=0;startArrow=ERmany;startFill=0;exitX=0.5;exitY=1;exitDx=0;exitDy=0;entryX=0.5;entryY=0;entryDx=0;entryDy=0;endFill=0;" edge="1" parent="1" source="C-vyLk0tnHw3VtMMgP7b-23" target="yDrpG6ZXYBAdKT8HltvP-87">
          <mxGeometry relative="1" as="geometry">
            <mxPoint x="120" y="390" as="sourcePoint" />
            <mxPoint x="320" y="390.5" as="targetPoint" />
          </mxGeometry>
        </mxCell>
        <mxCell id="yDrpG6ZXYBAdKT8HltvP-119" value="&lt;div&gt;N&lt;/div&gt;" style="resizable=0;html=1;align=left;verticalAlign=bottom;" connectable="0" vertex="1" parent="yDrpG6ZXYBAdKT8HltvP-118">
          <mxGeometry x="-1" relative="1" as="geometry">
            <mxPoint x="-20" y="30" as="offset" />
          </mxGeometry>
        </mxCell>
        <mxCell id="yDrpG6ZXYBAdKT8HltvP-120" value="&lt;div&gt;N&lt;/div&gt;" style="resizable=0;html=1;align=right;verticalAlign=bottom;" connectable="0" vertex="1" parent="yDrpG6ZXYBAdKT8HltvP-118">
          <mxGeometry x="1" relative="1" as="geometry">
            <mxPoint x="-10" y="-10" as="offset" />
          </mxGeometry>
        </mxCell>
        <mxCell id="yDrpG6ZXYBAdKT8HltvP-121" value="" style="endArrow=none;html=1;rounded=0;entryX=-0.012;entryY=0.167;entryDx=0;entryDy=0;entryPerimeter=0;" edge="1" parent="1" target="yDrpG6ZXYBAdKT8HltvP-124">
          <mxGeometry relative="1" as="geometry">
            <mxPoint x="170" y="361" as="sourcePoint" />
            <mxPoint x="250" y="360" as="targetPoint" />
          </mxGeometry>
        </mxCell>
        <mxCell id="yDrpG6ZXYBAdKT8HltvP-122" value="Submit" style="swimlane;fontStyle=0;childLayout=stackLayout;horizontal=1;startSize=26;horizontalStack=0;resizeParent=1;resizeParentMax=0;resizeLast=0;collapsible=1;marginBottom=0;align=center;fontSize=14;" vertex="1" parent="1">
          <mxGeometry x="260" y="300" width="160" height="116" as="geometry" />
        </mxCell>
        <mxCell id="yDrpG6ZXYBAdKT8HltvP-123" value="submit_datetime" style="text;strokeColor=none;fillColor=none;spacingLeft=4;spacingRight=4;overflow=hidden;rotatable=0;points=[[0,0.5],[1,0.5]];portConstraint=eastwest;fontSize=12;" vertex="1" parent="yDrpG6ZXYBAdKT8HltvP-122">
          <mxGeometry y="26" width="160" height="30" as="geometry" />
        </mxCell>
        <mxCell id="yDrpG6ZXYBAdKT8HltvP-124" value="points" style="text;strokeColor=none;fillColor=none;spacingLeft=4;spacingRight=4;overflow=hidden;rotatable=0;points=[[0,0.5],[1,0.5]];portConstraint=eastwest;fontSize=12;" vertex="1" parent="yDrpG6ZXYBAdKT8HltvP-122">
          <mxGeometry y="56" width="160" height="30" as="geometry" />
        </mxCell>
        <mxCell id="yDrpG6ZXYBAdKT8HltvP-125" value="team" style="text;strokeColor=none;fillColor=none;spacingLeft=4;spacingRight=4;overflow=hidden;rotatable=0;points=[[0,0.5],[1,0.5]];portConstraint=eastwest;fontSize=12;" vertex="1" parent="yDrpG6ZXYBAdKT8HltvP-122">
          <mxGeometry y="86" width="160" height="30" as="geometry" />
        </mxCell>
      </root>
    </mxGraphModel>
  </diagram>
</mxfile>
